<svg width="139" height="102" viewBox="0 0 139 102" fill="none" xmlns="http://www.w3.org/2000/svg">
<path fill-rule="evenodd" clip-rule="evenodd" d="M11.012 94.7952C16.5639 99.1904 24.4867 101.388 34.7807 101.388C38.9908 101.388 42.8308 100.925 46.3007 100H62.2892L71.1374 74.6699H108.959L117.634 100H138.28L102.193 0.934944H77.7301L68.2651 26.9184V0.934944H27.841V17.2434H47.6193V69.1181C47.6193 74.3229 46.5205 78.3133 44.3229 81.0892C42.241 83.7494 39.1181 85.0795 34.9542 85.0795C30.906 85.0795 27.7253 83.8651 25.4121 81.4361C23.0988 79.0072 21.5373 75.2482 20.7277 70.159L0.255422 73.1084C1.99036 83.0554 5.5759 90.2843 11.012 94.7952ZM89.5277 17.7639L89.8747 16.2024L91.4361 21.0602L94.3855 30.6024L104.275 59.0554H75.8217C83.2241 37.5422 87.2145 25.7446 87.7928 23.6627C88.4867 21.4651 89.0651 19.4988 89.5277 17.7639Z" fill="#0097E6"/>
</svg>
